<?xml version="1.0" standalone="no"?>
<!DOCTYPE svg PUBLIC "-//W3C//DTD SVG 20010904//EN"
 "http://www.w3.org/TR/2001/REC-SVG-20010904/DTD/svg10.dtd">
<svg version="1.0" xmlns="http://www.w3.org/2000/svg"
 width="591.000000pt" height="591.000000pt" viewBox="0 0 591.000000 591.000000"
 preserveAspectRatio="xMidYMid meet">
<metadata>
Created by potrace 1.14, written by Peter Selinger 2001-2017
</metadata>
<g transform="translate(0.000000,591.000000) scale(0.100000,-0.100000)"
fill="#000000" stroke="none">
<path d="M1866 5903 c-3 -4 -16 -8 -28 -10 -12 -2 -30 -11 -40 -20 -10 -9 -18
-13 -18 -9 0 4 -18 -10 -40 -31 -23 -20 -39 -42 -36 -49 3 -7 0 -15 -7 -18 -9
-3 -9 -5 1 -5 6 -1 12 -6 12 -12 0 -5 -5 -7 -11 -3 -8 4 -8 1 -2 -12 5 -11 9
-57 9 -104 -1 -47 4 -88 9 -92 6 -5 4 -8 -5 -8 -13 0 -13 -1 0 -10 9 -6 11
-13 5 -17 -9 -7 -11 -28 -5 -43 1 -3 3 -17 4 -31 2 -29 -9 -43 -39 -47 -11 -2
-39 -12 -62 -22 -23 -11 -50 -17 -60 -14 -12 4 -14 3 -6 -3 9 -6 7 -12 -8 -22
-17 -10 -20 -10 -13 1 4 7 -2 5 -13 -5 -12 -10 -27 -19 -35 -21 -7 -1 -20 -6
-28 -11 -8 -5 -17 -10 -20 -11 -3 0 -50 -22 -105 -48 -55 -26 -108 -48 -117
-49 -9 -1 -15 -4 -12 -8 2 -4 -3 -10 -12 -13 -8 -3 -13 -2 -10 2 3 5 -1 9 -8
9 -8 0 -12 -7 -8 -15 3 -10 1 -13 -6 -8 -7 4 -12 2 -12 -4 0 -6 -4 -8 -10 -5
-5 3 -10 0 -10 -7 0 -9 -3 -9 -10 2 -6 10 -10 11 -10 3 0 -15 -75 -55 -84 -46
-3 4 -6 2 -6 -4 0 -10 -46 -28 -62 -25 -5 1 -8 -3 -8 -9 0 -5 -4 -7 -10 -4 -5
3 -10 2 -10 -3 0 -11 -57 -36 -77 -35 -7 0 -11 -3 -8 -7 3 -4 -2 -11 -11 -14
-8 -3 -12 -2 -9 4 12 19 -4 10 -31 -17 -15 -16 -23 -21 -18 -13 5 10 2 9 -8
-2 -9 -10 -22 -18 -29 -18 -7 0 -9 -3 -6 -7 8 -7 -34 -39 -47 -35 -5 2 -6 -4
-3 -12 4 -9 -1 -20 -11 -25 -9 -6 -14 -11 -10 -11 4 0 3 -12 -3 -27 -17 -44
-21 -64 -22 -118 -1 -27 -5 -55 -10 -62 -4 -6 -4 -14 1 -17 7 -4 9 -70 15
-431 1 -49 6 -93 12 -97 7 -5 7 -8 -1 -8 -11 0 -12 -139 -1 -157 4 -7 3 -14
-3 -18 -6 -4 -7 -13 -1 -23 6 -11 6 -24 0 -35 -7 -12 -6 -17 2 -17 8 0 8 -4
-1 -15 -10 -12 -10 -15 0 -15 10 0 10 -3 0 -15 -7 -8 -8 -15 -3 -15 5 0 10 -7
10 -15 0 -8 -5 -15 -10 -15 -5 0 -5 -5 1 -13 7 -8 7 -18 2 -27 -5 -8 -6 -19
-2 -25 12 -19 13 -47 0 -39 -8 5 -8 3 -2 -7 13 -21 13 -83 0 -91 -7 -5 -7 -8
-1 -8 7 0 12 -66 14 -182 1 -101 3 -207 5 -236 1 -29 -2 -56 -7 -59 -4 -2 -4
-10 1 -16 5 -7 8 -74 8 -150 -1 -75 1 -137 4 -137 3 0 6 -9 6 -20 0 -11 -3
-20 -7 -20 -9 0 -6 -27 4 -36 3 -4 2 -15 -4 -25 -7 -14 -6 -19 3 -19 9 0 9 -3
-2 -10 -8 -5 -10 -10 -5 -10 6 0 10 -72 10 -198 0 -108 3 -205 7 -214 5 -9 4
-19 -1 -23 -6 -3 -6 -17 -1 -35 5 -19 5 -30 -1 -30 -6 0 -5 -8 1 -20 7 -13 7
-20 1 -20 -6 0 -7 -9 -3 -22 4 -13 8 -87 7 -165 0 -89 4 -143 10 -143 7 0 7
-3 0 -8 -10 -7 -15 -122 -5 -122 7 0 4 -66 -5 -79 -3 -6 -1 -11 5 -11 7 0 8
-6 0 -19 -5 -11 -6 -22 -2 -25 10 -6 10 -46 -1 -62 -3 -6 -3 -14 0 -18 4 -4 8
-32 10 -62 2 -41 -1 -53 -10 -47 -9 5 -9 3 -1 -8 6 -8 11 -64 12 -132 1 -64 4
-122 7 -127 3 -6 2 -10 -4 -10 -6 0 -8 -6 -5 -14 9 -23 11 -117 2 -122 -5 -3
-5 -11 -1 -17 4 -7 8 -34 9 -62 0 -27 4 -66 8 -85 9 -44 55 -140 68 -140 5 0
8 -7 6 -16 -2 -10 5 -18 17 -20 11 -2 21 -8 23 -13 2 -6 10 -11 18 -11 8 0 14
-5 14 -11 0 -5 4 -8 9 -4 5 3 17 -2 25 -11 9 -8 16 -13 16 -10 0 3 11 1 25 -4
29 -11 60 -17 130 -26 83 -10 90 -11 90 -14 0 -1 18 -3 40 -5 22 -1 40 -4 40
-5 0 -3 58 -10 93 -10 17 0 32 -4 32 -8 0 -4 15 -8 33 -8 61 -2 92 -8 106 -18
12 -9 13 -8 6 4 -7 12 -6 13 6 3 8 -6 27 -10 42 -9 15 2 27 0 27 -3 0 -3 12
-6 28 -7 15 0 52 -4 82 -8 30 -5 64 -9 75 -11 11 -1 20 -3 20 -5 0 -1 14 -3
30 -5 59 -6 121 -14 155 -20 19 -4 49 -8 65 -10 17 -1 30 -4 30 -5 0 -1 39 -6
111 -13 16 -2 34 -6 40 -9 5 -3 18 -4 28 -2 11 1 24 0 30 -4 6 -3 26 -7 46 -8
19 -1 35 -3 35 -4 0 -3 58 -10 93 -10 17 0 32 -4 32 -8 0 -4 15 -8 33 -8 61
-2 92 -8 106 -18 12 -9 13 -8 6 4 -7 12 -6 13 6 3 8 -6 27 -10 42 -9 15 2 27
0 27 -4 0 -4 10 -6 23 -5 12 1 29 -1 38 -6 9 -5 21 -3 27 3 9 9 12 9 12 -1 0
-8 7 -11 20 -8 11 3 20 2 20 -2 0 -4 12 -6 28 -5 15 1 33 -3 40 -9 8 -6 12 -5
12 4 0 9 3 10 8 4 6 -9 24 -13 92 -20 14 -2 25 -4 25 -5 0 -1 11 -3 25 -4 14
0 31 -5 38 -9 7 -5 12 -4 12 3 0 7 6 8 19 1 10 -6 21 -8 24 -5 3 3 11 2 19 -2
7 -4 24 -9 38 -10 14 -1 50 -5 80 -9 30 -4 64 -8 75 -10 11 -1 20 -3 20 -5 0
-1 18 -3 40 -5 22 -1 40 -4 40 -5 0 -1 11 -3 25 -5 14 -1 45 -6 70 -10 53 -8
226 -11 255 -4 11 2 26 9 34 14 10 5 16 4 19 -3 3 -9 9 -9 23 -2 10 6 19 8 19
4 0 -3 7 -1 15 6 11 9 15 10 15 1 0 -8 6 -7 16 3 8 9 22 16 30 16 8 0 14 5 14
12 0 6 3 8 7 5 3 -4 14 0 24 9 10 9 27 14 39 11 13 -3 18 -1 13 6 -4 7 0 8 11
4 11 -5 15 -3 10 5 -5 8 -2 9 10 5 11 -4 15 -3 11 4 -4 6 2 13 14 16 12 3 21
10 21 15 0 5 5 6 10 3 6 -4 22 1 35 9 14 9 25 14 25 11 0 -4 7 1 16 10 13 13
19 13 32 3 13 -10 14 -10 8 0 -5 9 9 20 48 38 31 14 56 29 56 34 0 5 7 7 15 4
8 -4 15 -1 15 6 0 6 4 9 9 5 5 -3 13 0 17 7 5 8 10 6 15 -8 7 -17 8 -17 8 3 1
13 4 22 9 21 10 -2 65 24 82 41 9 9 15 10 18 3 2 -6 12 -2 23 9 11 11 24 17
29 14 6 -4 10 -1 10 4 0 6 3 10 8 9 4 -1 26 8 50 20 23 12 42 19 42 15 0 -5 4
-3 8 3 7 11 107 61 132 66 8 2 20 9 26 17 6 8 20 12 32 9 12 -3 21 -3 20 1 -1
3 18 27 43 52 52 54 49 35 55 334 6 281 6 295 17 288 5 -3 4 4 -2 15 -14 26
-14 35 0 26 8 -5 8 -1 0 14 -14 26 -14 35 -1 27 6 -4 7 2 2 17 -9 26 -9 39 0
53 4 6 3 17 -3 25 -12 20 -11 33 2 24 8 -5 8 -1 0 14 -14 26 -14 35 0 26 8 -5
8 -1 0 14 -14 26 -14 35 0 26 8 -5 8 -1 0 14 -14 26 -14 35 0 26 8 -5 8 -1 0
14 -14 27 -14 35 1 26 7 -4 8 -3 4 5 -12 19 -15 82 -4 75 6 -4 5 2 -1 14 -14
26 -14 35 0 26 8 -5 8 -1 0 14 -14 27 -14 35 1 26 7 -4 8 -3 4 5 -12 19 -15
82 -4 75 6 -4 5 2 -1 14 -14 26 -14 35 0 26 8 -5 8 -1 0 14 -14 27 -14 35 1
26 7 -4 8 -3 4 5 -12 19 -15 82 -4 75 6 -4 5 2 -1 14 -14 26 -14 35 0 26 8 -5
8 -1 0 14 -14 27 -14 35 1 26 7 -4 8 -3 4 5 -12 19 -15 82 -4 75 6 -4 5 2 -1
14 -14 26 -14 35 0 26 8 -5 8 -1 0 14 -14 27 -14 35 1 26 7 -4 8 -3 4 5 -12
19 -15 82 -4 75 6 -4 5 2 -1 14 -14 26 -14 35 0 26 8 -5 8 -1 0 14 -14 27 -14
35 1 26 7 -4 8 -3 4 5 -12 19 -15 82 -4 75 6 -4 5 2 -1 14 -14 26 -14 35 0 26
8 -5 8 -1 0 14 -14 27 -14 35 1 26 7 -4 8 -3 4 5 -12 19 -15 82 -4 75 6 -4 5
2 -1 14 -14 26 -14 35 0 26 8 -5 8 -1 0 14 -14 27 -14 35 1 26 7 -4 8 -3 4 5
-12 19 -15 82 -4 75 6 -4 5 2 -1 14 -14 26 -14 35 0 26 8 -5 8 -1 0 14 -14 27
-14 35 1 26 7 -4 8 -3 4 5 -13 20 -15 82 -3 74 6 -3 7 -1 3 6 -13 20 -15 82
-3 74 6 -3 7 -1 3 6 -12 19 -15 82 -4 75 6 -4 5 2 -1 14 -14 26 -14 35 0 26 8
-5 8 -1 0 14 -14 27 -14 35 1 26 7 -4 8 -3 4 5 -12 19 -15 82 -4 75 6 -4 5 2
-1 14 -14 26 -14 35 0 26 8 -5 8 -1 0 14 -14 27 -14 35 1 26 7 -4 8 -3 4 5
-12 19 -15 82 -4 75 6 -4 5 2 -1 14 -14 26 -14 35 0 26 8 -5 8 -1 0 14 -14 27
-14 35 1 26 7 -4 8 -3 4 5 -12 19 -15 82 -4 75 6 -4 5 2 -1 14 -14 26 -14 35
0 26 8 -5 8 -1 0 14 -14 27 -14 35 1 26 7 -4 8 -3 4 5 -12 19 -15 82 -4 75 6
-4 5 2 -1 14 -14 26 -14 35 0 26 8 -5 8 -1 0 14 -14 27 -14 35 1 26 7 -4 8 -3
4 5 -12 19 -15 82 -4 75 6 -4 5 2 -1 14 -14 26 -14 35 0 26 8 -5 8 -1 0 14
-14 27 -14 35 1 26 7 -4 8 -3 4 5 -12 19 -15 82 -4 75 6 -4 5 2 -1 14 -14 26
-14 35 0 26 8 -5 8 -1 0 14 -14 27 -14 35 1 26 7 -4 8 -3 4 5 -12 19 -15 82
-4 75 6 -4 5 2 -1 14 -6 11 -11 23 -11 27 0 3 5 3 11 -1 8 -5 8 -1 0 14 -14
27 -14 35 1 26 7 -4 8 -3 4 5 -12 19 -15 82 -4 75 6 -4 5 2 -1 14 -6 11 -11
23 -11 27 0 3 5 3 11 -1 8 -5 8 -1 0 14 -14 27 -14 35 1 26 7 -4 8 -3 4 5 -13
20 -15 82 -3 74 6 -3 7 -1 3 6 -13 20 -15 82 -3 74 6 -3 7 -1 3 6 -13 20 -15
82 -3 74 6 -3 7 -1 3 6 -13 20 -15 82 -3 74 6 -3 7 -1 3 6 -13 20 -15 82 -3
74 6 -3 7 -1 3 6 -13 20 -15 82 -3 74 6 -3 7 -1 3 6 -12 19 -15 82 -4 75 6 -4
5 2 -1 14 -7 13 -7 23 -2 27 6 3 4 20 -5 40 -8 19 -15 46 -16 60 -1 14 -6 25
-11 25 -5 0 -6 7 -3 16 4 10 2 13 -6 8 -8 -5 -9 -2 -5 10 4 10 3 15 -3 11 -6
-3 -11 -1 -11 4 -1 6 -2 15 -3 20 0 5 -5 13 -10 18 -5 5 -6 2 -1 -7 4 -8 -10
3 -30 25 -21 22 -34 33 -29 25 4 -8 -5 -5 -20 8 -16 12 -36 22 -46 22 -9 0
-20 3 -24 8 -4 4 -12 8 -17 8 -5 1 -10 2 -11 3 -16 12 -268 19 -268 8 0 -4 -6
-5 -12 -1 -16 10 -938 12 -959 2 -9 -4 -19 -4 -23 -1 -3 4 -327 7 -719 8 -391
1 -716 3 -721 4 -5 0 -3 8 4 16 7 8 8 15 2 15 -11 0 -9 51 3 70 5 9 4 11 -4 6
-8 -5 -10 0 -7 18 2 14 -1 27 -7 30 -7 2 -7 5 -2 5 19 2 3 269 -16 283 -43 28
-70 34 -141 33 -42 -1 -75 2 -72 7 6 10 0 11 -10 1z"/>
<path d="M4660 409 c0 -5 4 -8 9 -5 5 4 12 0 14 -6 3 -8 6 -6 6 5 1 9 -6 17
-14 17 -8 0 -15 -5 -15 -11z"/>
<path d="M4510 360 c-9 -6 -10 -10 -3 -10 6 0 15 5 18 10 8 12 4 12 -15 0z"/>
<path d="M4325 280 c-16 -7 -17 -9 -3 -9 9 -1 20 4 23 9 7 11 7 11 -20 0z"/>
</g>
</svg>
