<svg xmlns="http://www.w3.org/2000/svg" width="788" height="788" preserveAspectRatio="xMidYMid meet" version="1.0" viewBox="0 0 591 591"><metadata>Created by potrace 1.14, written by Peter Selinger 2001-2017</metadata><g fill="#000" stroke="none"><path d="M3730 5577 c-14 -5 -43 -11 -65 -13 -63 -5 -107 -15 -138 -31 -16 -8 -38 -16 -49 -18 -44 -9 -88 -27 -88 -36 0 -6 -4 -8 -9 -5 -5 3 -28 -8 -52 -24 -24 -16 -49 -30 -56 -30 -6 0 -31 -16 -55 -36 -23 -20 -52 -41 -63 -46 -12 -5 -29 -22 -39 -37 -10 -15 -30 -33 -45 -39 -14 -6 -37 -28 -50 -47 -21 -31 -27 -34 -55 -29 -43 8 -61 12 -61 14 0 1 -27 4 -60 6 -33 2 -65 6 -72 9 -23 8 -82 -16 -117 -48 -30 -26 -38 -41 -42 -82 -3 -27 -7 -59 -9 -70 -3 -26 20 -70 53 -104 15 -14 35 -38 44 -52 9 -15 33 -37 52 -49 27 -16 35 -27 32 -43 -3 -12 -5 -23 -7 -24 -3 -5 -5 -15 -13 -70 -8 -51 -8 -51 -54 -64 -26 -7 -55 -13 -65 -14 -9 -1 -25 -9 -35 -18 -9 -8 -36 -23 -60 -34 -55 -23 -84 -79 -86 -163 -1 -65 9 -82 79 -130 41 -28 85 -45 145 -56 19 -3 42 -7 50 -9 8 -2 20 -4 27 -4 12 -1 20 -19 28 -61 2 -12 9 -28 15 -35 7 -8 14 -29 17 -47 3 -18 9 -34 14 -36 5 -2 9 -12 9 -22 0 -10 7 -20 15 -24 8 -3 14 -9 13 -13 -3 -13 14 -57 25 -64 5 -4 -1 -10 -13 -14 -25 -8 -70 -52 -70 -68 0 -18 -41 -97 -50 -97 -8 0 -21 -28 -26 -57 -1 -7 -20 -40 -42 -73 -33 -51 -39 -68 -36 -102 2 -22 11 -46 20 -52 13 -10 9 -12 -22 -13 -28 0 -44 -8 -61 -27 -13 -15 -23 -33 -23 -41 0 -16 -34 -81 -55 -105 -12 -14 -45 -74 -46 -85 -3 -23 -13 -45 -20 -45 -5 0 -9 -8 -10 -17 0 -10 -9 -31 -20 -48 -11 -16 -22 -38 -25 -47 -4 -10 -10 -18 -14 -18 -5 0 -13 -13 -19 -30 -5 -16 -15 -30 -20 -30 -6 0 -11 -9 -11 -20 0 -24 -27 -80 -38 -80 -4 0 -14 -20 -21 -46 -7 -25 -19 -51 -25 -57 -6 -7 -12 -19 -14 -27 -2 -8 -9 -18 -15 -22 -7 -4 -8 -8 -3 -8 5 0 3 -6 -3 -14 -11 -13 -64 -113 -159 -301 -25 -49 -51 -96 -58 -103 -7 -6 -16 -21 -19 -32 -3 -11 -10 -20 -15 -20 -4 0 -11 -15 -14 -34 -4 -19 -13 -39 -21 -46 -7 -6 -17 -25 -20 -41 -4 -16 -11 -29 -16 -29 -6 0 -7 -4 -4 -10 3 -5 2 -10 -4 -10 -6 0 -13 -11 -17 -25 -3 -14 -10 -25 -14 -25 -5 0 -16 -22 -25 -49 -9 -27 -22 -55 -30 -61 -8 -6 -17 -24 -20 -40 -4 -20 -14 -30 -33 -35 -35 -8 -72 -39 -72 -59 0 -9 -4 -16 -9 -16 -8 0 -27 -39 -23 -47 1 -2 -5 -17 -12 -35 -8 -19 -10 -42 -6 -53 4 -11 3 -28 -2 -37 -5 -10 -6 -18 -3 -18 7 0 -50 -110 -86 -165 -14 -22 -31 -55 -38 -74 -6 -19 -18 -42 -27 -52 -8 -9 -17 -24 -18 -32 -1 -9 -10 -26 -19 -39 -15 -19 -70 -121 -111 -205 -6 -13 -14 -23 -18 -23 -5 0 -8 -6 -8 -13 0 -8 -9 -22 -20 -32 -11 -10 -20 -23 -20 -30 0 -7 -11 -33 -25 -59 -14 -26 -25 -56 -25 -67 0 -10 -5 -19 -11 -19 -6 0 -7 -5 -2 -12 4 -7 9 -22 10 -33 6 -41 13 -64 26 -77 7 -7 18 -24 25 -38 6 -14 16 -32 22 -40 5 -8 32 -53 60 -100 61 -105 125 -178 165 -188 17 -5 132 -8 256 -7 206 0 230 2 263 20 22 12 39 30 43 45 3 14 9 30 13 35 4 6 19 30 33 55 84 154 101 184 107 190 3 3 18 32 34 65 16 32 35 66 44 74 8 9 24 36 35 61 11 25 28 56 38 70 9 14 32 53 50 85 17 33 36 66 42 73 5 7 17 27 27 45 10 19 26 32 37 33 25 1 72 35 73 52 0 6 4 12 9 12 5 0 18 23 30 50 16 38 20 58 13 82 -7 28 -3 42 27 91 19 33 40 61 48 64 7 3 13 11 13 18 0 8 6 20 13 27 18 20 47 77 47 93 0 8 8 20 18 27 20 14 47 58 36 58 -3 0 -2 6 4 13 5 6 20 30 32 52 57 103 114 200 120 205 3 3 14 22 23 43 10 20 22 37 26 37 5 0 11 8 15 18 6 19 28 54 38 62 3 3 18 31 33 63 14 32 35 67 47 79 11 11 38 55 59 98 22 43 43 80 47 82 11 5 62 95 57 100 -3 3 6 15 20 28 14 13 25 29 25 36 0 7 3 14 8 16 4 2 27 43 52 93 25 49 53 98 63 108 24 24 47 90 42 119 -3 13 -17 34 -32 47 -20 18 -22 22 -8 16 67 -28 122 6 163 99 12 26 35 65 52 86 16 21 30 40 30 43 0 3 14 27 31 52 33 49 42 86 29 121 -8 20 -6 21 23 15 41 -9 202 -2 202 9 0 1 19 4 42 5 22 2 51 8 62 14 12 7 21 9 21 6 0 -3 17 2 38 11 20 8 45 17 56 20 10 2 26 10 35 17 9 8 43 27 76 42 62 30 177 104 184 118 1 4 21 25 44 45 22 20 50 48 61 61 41 48 69 71 79 64 5 -3 24 -8 41 -10 51 -6 60 -8 76 -18 22 -14 121 -13 157 1 37 15 90 69 99 102 3 12 11 22 18 22 7 0 7 3 1 8 -5 4 -11 31 -11 60 -1 38 -7 59 -22 75 -11 12 -23 32 -26 43 -4 12 -20 27 -37 34 -16 7 -28 15 -25 17 2 3 -13 20 -34 40 -45 39 -57 68 -40 88 7 8 12 33 12 55 -1 35 3 43 26 52 15 7 35 12 44 13 9 1 34 12 55 25 21 12 48 24 61 26 12 3 31 13 42 24 11 11 24 20 29 20 15 0 43 82 46 135 2 34 -3 59 -16 80 -24 41 -65 75 -88 75 -11 0 -23 5 -26 10 -3 6 -17 10 -29 10 -13 0 -41 7 -62 16 -21 9 -54 17 -73 18 -40 1 -64 13 -56 26 3 4 -7 34 -22 66 -15 33 -28 65 -29 72 -1 7 -8 20 -15 28 -7 9 -14 25 -16 35 -2 11 -11 28 -21 39 -9 10 -28 37 -42 59 -14 22 -35 45 -47 52 -13 7 -23 18 -23 25 0 16 -68 84 -102 103 -14 7 -31 23 -38 36 -7 12 -33 33 -59 46 -25 12 -55 31 -65 41 -11 10 -26 18 -33 18 -7 0 -13 4 -13 9 0 8 -19 18 -50 26 -3 1 -12 5 -20 8 -19 8 -100 36 -120 42 -87 25 -142 37 -182 39 -16 0 -28 3 -28 6 0 3 -48 6 -106 7 -58 1 -111 4 -118 6 -6 2 -22 0 -36 -6z m-969 -2204 c13 -17 13 -17 -6 -3 -11 8 -22 16 -24 17 -2 2 0 3 6 3 6 0 17 -8 24 -17z m39 -23 c0 -5 -2 -10 -4 -10 -3 0 -8 5 -11 10 -3 6 -1 10 4 10 6 0 11 -4 11 -10z m83 -41 c48 -25 95 -59 80 -59 -6 0 -16 7 -23 15 -7 8 -18 15 -24 15 -13 0 -95 49 -83 50 4 0 27 -10 50 -21z m173 -95 c19 -9 34 -21 34 -26 0 -7 -54 19 -79 39 -12 9 15 1 45 -13z m149 -92 c-3 -3 -11 0 -18 7 -9 10 -8 11 6 5 10 -3 15 -9 12 -12z m180 -92 c3 -5 1 -10 -4 -10 -6 0 -11 5 -11 10 0 6 2 10 4 10 3 0 8 -4 11 -10z" transform="translate(0.000000,591.000000) scale(0.100000,-0.100000)"/></g></svg>